<?xml version="1.0" standalone="no"?><!DOCTYPE svg PUBLIC "-//W3C//DTD SVG 1.1//EN" "http://www.w3.org/Graphics/SVG/1.1/DTD/svg11.dtd"><svg class="icon" width="200px" height="200.00px" viewBox="0 0 1024 1024" version="1.1" xmlns="http://www.w3.org/2000/svg"><path fill="#333333" d="M400 512c0 61.86 50.14 112 112 112 13.2 0 25.86-2.28 37.62-6.47L406.48 474.37C402.29 486.13 400 498.8 400 512z m112-320c-65.92 0-130 19.61-192.31 59.81L780.1 712.25c41.13-38.7 81.46-86.98 120.99-145.16l8.12-12.11 8.23-12.58c12.04-18.65 12.06-42.13 0.16-60.56C790.6 285.13 655.62 192 512 192zM122.9 456.91l-8.12 12.11-8.23 12.58c-12.04 18.65-12.06 42.13-0.16 60.56C233.4 738.87 368.38 832 512 832c65.92 0 130-19.61 192.31-59.8l-83.11-83.13C589.46 708.68 552.05 720 512 720c-114.88 0-208-93.12-208-208 0-40.04 11.32-77.44 30.92-109.18l-91.04-91.06c-41.12 38.69-81.44 86.98-120.98 145.15zM110.29 42.76l3.65 3.29L250.6 182.68C332.65 125.21 419.81 96 512 96c181.89 0 344.13 113.63 486.26 333.77 30.95 47.94 32.3 108.79 3.9 158.06l-4.06 6.65-8.53 13.05c-45.2 68.25-92.43 125.84-141.65 172.53l130.03 130c18.74 18.75 18.74 49.14 0 67.88-17.57 17.57-45.39 18.67-64.24 3.3l-3.65-3.3-136.64-136.63C691.37 898.79 604.2 928 512 928c-181.89 0-344.13-113.63-486.26-333.77-30.95-47.94-32.3-108.79-3.9-158.06l4.06-6.65 8.53-13.05c45.19-68.24 92.41-125.82 141.63-172.51l-130-130.03c-18.74-18.75-18.74-49.14 0-67.88 17.57-17.56 45.38-18.66 64.23-3.29z" /></svg>