<?xml version="1.0" standalone="no"?><!DOCTYPE svg PUBLIC "-//W3C//DTD SVG 1.1//EN" "http://www.w3.org/Graphics/SVG/1.1/DTD/svg11.dtd"><svg class="icon" width="200px" height="200.00px" viewBox="0 0 1024 1024" version="1.1" xmlns="http://www.w3.org/2000/svg"><path fill="#333333" d="M512 400c-61.86 0-112 50.14-112 112s50.14 112 112 112 112-50.14 112-112-50.14-112-112-112z m0-96c114.88 0 208 93.12 208 208s-93.12 208-208 208-208-93.12-208-208 93.12-208 208-208z m0-112c-137.52 0-267.07 85.35-389.1 264.91l-8.12 12.11-8.23 12.58c-12.04 18.65-12.06 42.13-0.16 60.56C233.4 738.87 368.38 832 512 832c137.52 0 267.07-85.35 389.1-264.91l8.12-12.11 8.23-12.58c12.04-18.65 12.06-42.13 0.16-60.56C790.6 285.13 655.62 192 512 192z m0-96c181.89 0 344.13 113.63 486.26 333.77 30.95 47.94 32.3 108.79 3.9 158.06l-4.06 6.65-8.53 13.05C849.57 818.9 690.17 928 512 928c-181.89 0-344.13-113.63-486.26-333.77-30.95-47.94-32.3-108.79-3.9-158.06l4.06-6.65 8.53-13.05C174.43 205.1 333.83 96 512 96z" /></svg>