<?xml version="1.0" standalone="no"?><!DOCTYPE svg PUBLIC "-//W3C//DTD SVG 1.1//EN" "http://www.w3.org/Graphics/SVG/1.1/DTD/svg11.dtd"><svg class="icon" width="200px" height="200.00px" viewBox="0 0 1024 1024" version="1.1" xmlns="http://www.w3.org/2000/svg"><path fill="#333333" d="M512 112c-96.61 0-175.37 76.46-179.07 172.16l-0.1 3.84h358.3l-0.08-4.01c-3.69-93.29-78.7-168.25-172.02-171.85L512 112z m0 448c26.51 0 48 21.49 48 48v96c0 26.51-21.49 48-48 48s-48-21.49-48-48v-96c0-26.51 21.49-48 48-48z m320-176H192c-35.35 0-64 28.65-64 64v400c0 35.35 28.65 64 64 64h640c35.35 0 64-28.65 64-64V448c0-35.35-28.65-64-64-64zM512 16c149.23 0 270.71 118.77 275.08 266.94l0.06 5.06H832c86.04 0 156.22 67.91 159.85 153.06L992 448v400c0 86.04-67.91 156.22-153.06 159.85l-6.94 0.15H192c-86.04 0-156.22-67.91-159.85-153.06L32 848V448c0-86.04 67.91-156.22 153.06-159.85L192 288h44.83l0.09-5.06C241.29 134.77 362.77 16 512 16z" /></svg>